<svg xmlns="http://www.w3.org/2000/svg" xmlns:xlink="http://www.w3.org/1999/xlink" width="2000" zoomAndPan="magnify" viewBox="0 0 1500 1499.999933" height="2000" preserveAspectRatio="xMidYMid meet" version="1.0"><defs><g/><clipPath id="76bd6e042d"><rect x="0" width="1040" y="0" height="536"/></clipPath><clipPath id="9cfa1094bc"><path d="M 52 542.535156 L 384.40625 542.535156 L 384.40625 957.285156 L 52 957.285156 Z M 52 542.535156 " clip-rule="nonzero"/></clipPath></defs><g transform="matrix(1, 0, 0, 1, 402, 482)"><g clip-path="url(#76bd6e042d)"><g fill="#38b6ff" fill-opacity="1"><g transform="translate(0.658944, 236.413687)"><g><path d="M 198.3125 -188.859375 L 198.3125 -151.09375 L 47.21875 -151.09375 L 47.21875 -37.765625 L 160.53125 -37.765625 L 160.53125 -75.546875 L 84.984375 -75.546875 L 84.984375 -113.3125 L 198.3125 -113.3125 L 198.3125 -37.765625 C 198.3125 -31.003906 196.617188 -24.75 193.234375 -19 C 189.847656 -13.257812 185.320312 -8.65625 179.65625 -5.1875 C 173.988281 -1.726562 167.613281 0 160.53125 0 L 47.21875 0 C 40.289062 0 33.953125 -1.691406 28.203125 -5.078125 C 22.460938 -8.460938 17.898438 -13.023438 14.515625 -18.765625 C 11.128906 -24.515625 9.4375 -30.847656 9.4375 -37.765625 L 9.4375 -151.09375 C 9.4375 -158.019531 11.128906 -164.351562 14.515625 -170.09375 C 17.898438 -175.84375 22.460938 -180.40625 28.203125 -183.78125 C 33.953125 -187.164062 40.289062 -188.859375 47.21875 -188.859375 Z M 198.3125 -188.859375 "/></g></g></g><g fill="#38b6ff" fill-opacity="1"><g transform="translate(208.410007, 236.413687)"><g><path d="M 47.21875 0 L 9.4375 0 L 9.4375 -37.765625 L 47.21875 -37.765625 Z M 47.21875 0 "/></g></g></g><g fill="#38b6ff" fill-opacity="1"><g transform="translate(265.069363, 236.413687)"><g><path d="M 103.875 0 C 95.375 0 87.503906 -2.988281 80.265625 -8.96875 L 16.53125 -63.734375 C 11.800781 -67.984375 9.4375 -73.019531 9.4375 -78.84375 L 9.4375 -188.859375 L 47.21875 -188.859375 L 47.21875 -87.34375 L 103.875 -38.484375 L 160.53125 -87.34375 L 160.53125 -188.859375 L 198.3125 -188.859375 L 198.0625 -78.84375 C 198.0625 -72.863281 195.78125 -67.828125 191.21875 -63.734375 L 127.484375 -8.96875 C 120.554688 -2.988281 112.6875 0 103.875 0 Z M 103.875 0 "/></g></g></g><g fill="#38b6ff" fill-opacity="1"><g transform="translate(472.820427, 236.413687)"><g><path d="M 47.21875 0 L 9.4375 0 L 9.4375 -37.765625 L 47.21875 -37.765625 Z M 47.21875 0 "/></g></g></g><g fill="#38b6ff" fill-opacity="1"><g transform="translate(0.658944, 488.226575)"><g><path d="M 198.3125 -188.859375 L 198.3125 -151.09375 L 122.765625 -151.09375 L 122.765625 0 L 84.984375 0 L 84.984375 -151.09375 L 9.4375 -151.09375 L 9.4375 -188.859375 Z M 198.3125 -188.859375 "/></g></g></g><g fill="#38b6ff" fill-opacity="1"><g transform="translate(208.410007, 488.226575)"><g><path d="M 198.3125 -188.859375 L 198.3125 -151.09375 L 47.21875 -151.09375 L 47.21875 -113.3125 L 198.3125 -113.3125 L 198.3125 -75.546875 L 47.21875 -75.546875 L 47.21875 -37.765625 L 198.3125 -37.765625 L 198.3125 0 L 47.21875 0 C 40.289062 0 33.953125 -1.691406 28.203125 -5.078125 C 22.460938 -8.460938 17.898438 -13.023438 14.515625 -18.765625 C 11.128906 -24.515625 9.4375 -30.847656 9.4375 -37.765625 L 9.4375 -151.09375 C 9.4375 -158.019531 11.128906 -164.351562 14.515625 -170.09375 C 17.898438 -175.84375 22.460938 -180.40625 28.203125 -183.78125 C 33.953125 -187.164062 40.289062 -188.859375 47.21875 -188.859375 Z M 198.3125 -188.859375 "/></g></g></g><g fill="#38b6ff" fill-opacity="1"><g transform="translate(416.16107, 488.226575)"><g><path d="M 198.3125 0 L 47.21875 0 C 40.289062 0 33.953125 -1.691406 28.203125 -5.078125 C 22.460938 -8.460938 17.898438 -13.023438 14.515625 -18.765625 C 11.128906 -24.515625 9.4375 -30.847656 9.4375 -37.765625 L 9.4375 -151.09375 C 9.4375 -158.019531 11.128906 -164.351562 14.515625 -170.09375 C 17.898438 -175.84375 22.460938 -180.40625 28.203125 -183.78125 C 33.953125 -187.164062 40.289062 -188.859375 47.21875 -188.859375 L 198.3125 -188.859375 L 198.3125 -151.09375 L 47.21875 -151.09375 L 47.21875 -37.765625 L 198.3125 -37.765625 Z M 198.3125 0 "/></g></g></g><g fill="#38b6ff" fill-opacity="1"><g transform="translate(623.912134, 488.226575)"><g><path d="M 160.53125 -113.3125 L 160.53125 -188.859375 L 198.3125 -188.859375 L 198.3125 0 L 160.53125 0 L 160.53125 -75.546875 L 47.21875 -75.546875 L 47.21875 0 L 9.4375 0 L 9.4375 -188.859375 L 47.21875 -188.859375 L 47.21875 -113.3125 Z M 160.53125 -113.3125 "/></g></g></g><g fill="#38b6ff" fill-opacity="1"><g transform="translate(831.663197, 488.226575)"><g><path d="M 198.3125 -188.859375 L 198.3125 -151.09375 L 47.21875 -151.09375 L 47.21875 -113.3125 L 160.53125 -113.3125 C 167.457031 -113.3125 173.789062 -111.617188 179.53125 -108.234375 C 185.28125 -104.859375 189.847656 -100.296875 193.234375 -94.546875 C 196.617188 -88.804688 198.3125 -82.472656 198.3125 -75.546875 L 198.3125 -37.765625 C 198.3125 -30.847656 196.617188 -24.515625 193.234375 -18.765625 C 189.847656 -13.023438 185.28125 -8.460938 179.53125 -5.078125 C 173.789062 -1.691406 167.457031 0 160.53125 0 L 9.4375 0 L 9.4375 -37.765625 L 160.53125 -37.765625 L 160.53125 -75.546875 L 47.21875 -75.546875 C 40.289062 -75.546875 33.953125 -77.238281 28.203125 -80.625 C 22.460938 -84.007812 17.898438 -88.570312 14.515625 -94.3125 C 11.128906 -100.0625 9.4375 -106.394531 9.4375 -113.3125 L 9.4375 -151.09375 C 9.4375 -158.019531 11.128906 -164.351562 14.515625 -170.09375 C 17.898438 -175.84375 22.460938 -180.40625 28.203125 -183.78125 C 33.953125 -187.164062 40.289062 -188.859375 47.21875 -188.859375 Z M 198.3125 -188.859375 "/></g></g></g></g></g><g clip-path="url(#9cfa1094bc)"><path fill="#ffffff" d="M 170.546875 543.554688 C 175.671875 542.914062 180.832031 542.628906 185.992188 542.703125 C 189.902344 542.761719 193.042969 545.945312 193.042969 549.855469 L 193.042969 588.65625 C 193.085938 588.976562 193.109375 589.300781 193.109375 589.632812 C 193.109375 589.960938 193.085938 590.285156 193.042969 590.605469 L 193.042969 631.648438 L 203.238281 631.648438 L 228.378906 586.992188 L 228.90625 586.1875 C 230.246094 584.414062 232.351562 583.34375 234.613281 583.34375 L 264.222656 583.34375 C 267.167969 575.011719 275.117188 569.039062 284.464844 569.039062 C 296.316406 569.039062 305.925781 578.644531 305.925781 590.496094 C 305.925781 602.34375 296.316406 611.949219 284.464844 611.949219 C 275.121094 611.949219 267.171875 605.980469 264.226562 597.648438 L 238.796875 597.648438 L 219.648438 631.648438 L 236.027344 631.648438 C 236.039062 631.648438 236.050781 631.648438 236.058594 631.648438 L 310.125 631.648438 L 335.652344 606.125 C 334.3125 603.324219 333.5625 600.1875 333.5625 596.878906 C 333.5625 585.027344 343.167969 575.421875 355.019531 575.421875 C 366.871094 575.421875 376.480469 585.027344 376.480469 596.878906 C 376.480469 608.726562 366.871094 618.332031 355.019531 618.332031 C 351.707031 618.332031 348.570312 617.582031 345.769531 616.242188 L 318.152344 643.855469 C 316.8125 645.195312 314.992188 645.949219 313.09375 645.949219 L 243.183594 645.949219 L 243.183594 667.40625 L 342.964844 667.40625 C 345.914062 659.074219 353.859375 653.105469 363.203125 653.105469 C 375.054688 653.105469 384.664062 662.710938 384.664062 674.558594 C 384.664062 686.40625 375.054688 696.011719 363.203125 696.011719 C 353.859375 696.011719 345.910156 690.042969 342.964844 681.707031 L 243.183594 681.707031 L 243.183594 703.164062 L 313.09375 703.164062 L 313.800781 703.199219 C 315.4375 703.359375 316.980469 704.085938 318.152344 705.257812 L 345.769531 732.871094 C 348.570312 731.53125 351.707031 730.78125 355.019531 730.78125 C 366.871094 730.78125 376.480469 740.386719 376.480469 752.234375 C 376.480469 764.085938 366.871094 773.691406 355.019531 773.691406 C 343.167969 773.691406 333.5625 764.085938 333.5625 752.234375 C 333.5625 748.925781 334.3125 745.789062 335.652344 742.992188 L 310.125 717.464844 L 236.03125 717.464844 C 236.03125 717.464844 236.03125 717.464844 236.027344 717.464844 L 219.617188 717.464844 L 238.808594 751.777344 L 264.226562 751.777344 C 267.175781 743.449219 275.121094 737.480469 284.464844 737.480469 C 296.316406 737.480469 305.925781 747.085938 305.925781 758.933594 C 305.925781 770.785156 296.316406 780.390625 284.464844 780.390625 C 275.117188 780.390625 267.167969 774.417969 264.222656 766.082031 L 234.613281 766.082031 C 232.023438 766.082031 229.636719 764.679688 228.375 762.421875 L 203.21875 717.464844 L 193.042969 717.464844 L 193.042969 758.507812 C 193.085938 758.828125 193.109375 759.152344 193.109375 759.480469 C 193.109375 759.8125 193.085938 760.136719 193.042969 760.457031 L 193.042969 849.019531 L 238.394531 849.019531 L 238.394531 846.792969 C 238.414062 829.648438 241.78125 812.667969 248.304688 796.808594 C 249.808594 793.160156 253.984375 791.417969 257.640625 792.921875 C 261.292969 794.421875 263.039062 798.597656 261.535156 802.25 C 255.722656 816.386719 252.714844 831.527344 252.699219 846.816406 L 252.699219 849.820312 C 262.878906 852.527344 270.378906 861.800781 270.378906 872.828125 C 270.378906 883.894531 262.824219 893.199219 252.589844 895.867188 C 252.300781 899.773438 251.390625 903.613281 249.886719 907.242188 C 248.039062 911.703125 245.328125 915.761719 241.910156 919.175781 C 238.492188 922.59375 234.429688 925.308594 229.964844 927.160156 C 226.738281 928.496094 223.34375 929.363281 219.882812 929.742188 C 218.511719 936.335938 215.234375 942.441406 210.386719 947.265625 C 203.882812 953.734375 195.078125 957.371094 185.902344 957.371094 C 176.726562 957.371094 167.921875 953.734375 161.417969 947.265625 C 156.570312 942.441406 153.292969 936.335938 151.917969 929.742188 C 143.628906 928.835938 135.84375 925.128906 129.890625 919.175781 C 123.628906 912.917969 119.855469 904.636719 119.207031 895.867188 C 108.976562 893.199219 101.425781 883.894531 101.425781 872.828125 C 101.425781 861.8125 108.910156 852.542969 119.074219 849.828125 C 118.566406 817.601562 106.519531 786.621094 85.113281 762.511719 C 85.089844 762.484375 85.066406 762.460938 85.042969 762.433594 C 69.277344 744.128906 58.796875 721.875 54.726562 698.0625 C 50.65625 674.25 53.152344 649.78125 61.941406 627.28125 C 70.734375 604.777344 85.484375 585.089844 104.617188 570.339844 C 123.75 555.589844 146.546875 546.328125 170.546875 543.546875 Z M 166.867188 929.960938 C 167.886719 932.625 169.449219 935.082031 171.511719 937.132812 C 175.335938 940.933594 180.507812 943.066406 185.902344 943.066406 C 191.292969 943.066406 196.46875 940.933594 200.292969 937.132812 C 202.355469 935.082031 203.914062 932.625 204.9375 929.960938 Z M 133.6875 896.640625 C 134.421875 901.316406 136.613281 905.675781 140.003906 909.0625 C 144.222656 913.28125 149.949219 915.65625 155.917969 915.65625 L 158.210938 915.65625 C 158.257812 915.65625 158.300781 915.65625 158.34375 915.65625 L 213.460938 915.65625 C 213.503906 915.65625 213.546875 915.65625 213.589844 915.65625 L 215.882812 915.65625 C 218.835938 915.65625 221.765625 915.078125 224.496094 913.945312 C 227.226562 912.816406 229.707031 911.152344 231.792969 909.0625 C 233.882812 906.976562 235.539062 904.496094 236.671875 901.765625 C 237.355469 900.117188 237.828125 898.394531 238.101562 896.640625 Z M 125.238281 863.324219 C 119.988281 863.324219 115.734375 867.582031 115.734375 872.828125 C 115.734375 878.078125 119.988281 882.332031 125.238281 882.335938 L 246.558594 882.335938 C 251.8125 882.335938 256.074219 878.078125 256.074219 872.828125 C 256.074219 867.578125 251.8125 863.324219 246.558594 863.324219 L 245.683594 863.324219 C 245.640625 863.324219 245.59375 863.324219 245.546875 863.324219 L 126.230469 863.324219 C 126.1875 863.324219 126.140625 863.324219 126.09375 863.324219 Z M 178.734375 557.152344 C 176.574219 557.277344 174.410156 557.476562 172.257812 557.746094 L 172.191406 557.761719 C 150.773438 560.242188 130.433594 568.503906 113.355469 581.667969 C 96.28125 594.832031 83.109375 612.402344 75.265625 632.484375 C 67.421875 652.5625 65.199219 674.402344 68.832031 695.652344 C 72.464844 716.902344 81.816406 736.761719 95.886719 753.097656 C 119.390625 779.609375 132.667969 813.617188 133.363281 849.019531 L 178.734375 849.019531 L 178.734375 766.632812 L 169.929688 766.632812 C 165.980469 766.632812 162.777344 763.429688 162.777344 759.480469 L 162.777344 739.625 C 160.554688 738.835938 158.378906 737.9375 156.25 736.921875 L 142.230469 750.949219 C 139.4375 753.742188 134.902344 753.742188 132.109375 750.949219 L 109.511719 728.355469 C 108.171875 727.015625 107.417969 725.195312 107.414062 723.296875 C 107.414062 721.402344 108.167969 719.574219 109.511719 718.234375 L 123.53125 704.210938 C 122.519531 702.085938 121.617188 699.910156 120.828125 697.695312 L 100.972656 697.695312 C 97.023438 697.695312 93.824219 694.492188 93.820312 690.542969 L 93.820312 658.570312 C 93.824219 654.621094 97.023438 651.417969 100.972656 651.417969 L 120.828125 651.417969 C 121.617188 649.199219 122.519531 647.023438 123.53125 644.894531 L 109.511719 630.878906 C 108.167969 629.539062 107.414062 627.710938 107.414062 625.816406 C 107.417969 623.917969 108.171875 622.097656 109.511719 620.757812 L 132.109375 598.164062 L 132.65625 597.667969 C 135.464844 595.378906 139.613281 595.546875 142.230469 598.164062 L 156.25 612.183594 C 158.378906 611.171875 160.554688 610.269531 162.777344 609.480469 L 162.777344 589.632812 C 162.777344 585.683594 165.980469 582.480469 169.929688 582.480469 L 178.734375 582.480469 Z M 284.464844 751.78125 C 280.578125 751.78125 277.414062 754.882812 277.3125 758.742188 C 277.316406 758.804688 277.316406 758.867188 277.316406 758.929688 C 277.316406 758.996094 277.316406 759.058594 277.3125 759.121094 C 277.410156 762.984375 280.574219 766.085938 284.464844 766.085938 C 288.414062 766.085938 291.617188 762.886719 291.617188 758.933594 C 291.617188 754.984375 288.414062 751.78125 284.464844 751.78125 Z M 355.019531 745.085938 C 353.335938 745.085938 351.785156 745.667969 350.558594 746.644531 C 350.394531 746.851562 350.214844 747.054688 350.023438 747.246094 C 349.832031 747.4375 349.632812 747.613281 349.425781 747.777344 C 348.449219 749 347.867188 750.550781 347.867188 752.234375 C 347.867188 756.183594 351.070312 759.386719 355.019531 759.386719 C 358.972656 759.386719 362.175781 756.183594 362.175781 752.234375 C 362.175781 748.285156 358.972656 745.085938 355.019531 745.085938 Z M 177.082031 614.730469 C 177.082031 617.972656 174.90625 620.8125 171.773438 621.644531 C 167.125 622.886719 162.65625 624.730469 158.492188 627.140625 C 155.691406 628.765625 152.144531 628.300781 149.851562 626.011719 L 137.167969 613.335938 L 124.683594 625.816406 L 137.363281 638.496094 C 139.65625 640.789062 140.117188 644.332031 138.496094 647.136719 C 136.082031 651.300781 134.234375 655.765625 132.996094 660.414062 C 132.164062 663.542969 129.320312 665.722656 126.082031 665.722656 L 108.128906 665.722656 L 108.128906 683.390625 L 126.082031 683.390625 L 127.273438 683.488281 C 130 683.949219 132.265625 685.960938 132.996094 688.699219 C 134.234375 693.347656 136.082031 697.8125 138.496094 701.976562 C 140.117188 704.78125 139.65625 708.324219 137.363281 710.613281 L 124.683594 723.292969 L 137.167969 735.773438 L 149.851562 723.101562 L 150.769531 722.328125 C 153.019531 720.726562 156.039062 720.550781 158.492188 721.972656 C 162.65625 724.382812 167.125 726.230469 171.773438 727.46875 C 174.90625 728.300781 177.082031 731.140625 177.082031 734.382812 L 177.082031 752.332031 L 178.734375 752.332031 L 178.734375 711.074219 C 171.550781 709.65625 164.882812 706.132812 159.628906 700.878906 C 152.644531 693.898438 148.722656 684.429688 148.722656 674.558594 C 148.722656 664.683594 152.644531 655.214844 159.628906 648.234375 C 164.882812 642.980469 171.550781 639.460938 178.734375 638.039062 L 178.734375 596.78125 L 177.082031 596.78125 Z M 193.109375 703.164062 L 207.203125 703.164062 C 207.339844 703.160156 207.476562 703.160156 207.613281 703.164062 L 228.875 703.164062 L 228.875 674.570312 C 228.875 674.566406 228.875 674.5625 228.875 674.554688 C 228.875 674.550781 228.875 674.546875 228.875 674.542969 L 228.875 645.949219 L 193.109375 645.949219 Z M 178.734375 652.800781 C 175.378906 653.914062 172.289062 655.800781 169.742188 658.347656 C 165.445312 662.644531 163.03125 668.480469 163.03125 674.558594 C 163.03125 680.636719 165.445312 686.46875 169.742188 690.765625 C 172.289062 693.316406 175.378906 695.199219 178.734375 696.3125 Z M 363.203125 667.40625 C 359.253906 667.40625 356.050781 670.609375 356.050781 674.558594 C 356.050781 678.507812 359.253906 681.710938 363.203125 681.710938 C 367.15625 681.710938 370.359375 678.507812 370.359375 674.558594 C 370.359375 670.609375 367.15625 667.40625 363.203125 667.40625 Z M 355.019531 589.726562 C 351.070312 589.726562 347.867188 592.929688 347.867188 596.878906 C 347.867188 598.5625 348.449219 600.113281 349.425781 601.335938 C 349.632812 601.5 349.832031 601.675781 350.023438 601.867188 C 350.214844 602.058594 350.394531 602.261719 350.558594 602.46875 C 351.785156 603.445312 353.332031 604.03125 355.019531 604.03125 C 358.972656 604.03125 362.175781 600.828125 362.175781 596.878906 C 362.175781 592.929688 358.972656 589.726562 355.019531 589.726562 Z M 284.464844 583.34375 C 280.574219 583.34375 277.414062 586.445312 277.3125 590.308594 C 277.316406 590.371094 277.316406 590.433594 277.316406 590.496094 C 277.316406 590.558594 277.316406 590.621094 277.3125 590.683594 C 277.414062 594.546875 280.578125 597.644531 284.464844 597.644531 C 288.414062 597.644531 291.617188 594.445312 291.617188 590.496094 C 291.617188 586.542969 288.414062 583.34375 284.464844 583.34375 Z M 284.464844 583.34375 " fill-opacity="1" fill-rule="nonzero"/></g></svg>