<svg xmlns="http://www.w3.org/2000/svg" xmlns:xlink="http://www.w3.org/1999/xlink" width="2000" zoomAndPan="magnify" viewBox="0 0 1500 1499.999933" height="2000" preserveAspectRatio="xMidYMid meet" version="1.0"><defs><g/><clipPath id="da0712c56e"><rect x="0" width="1040" y="0" height="536"/></clipPath><clipPath id="ce8f27fb0b"><path d="M 52 542.535156 L 384.40625 542.535156 L 384.40625 957.285156 L 52 957.285156 Z M 52 542.535156 " clip-rule="nonzero"/></clipPath></defs><g transform="matrix(1, 0, 0, 1, 402, 482)"><g clip-path="url(#da0712c56e)"><g fill="#38b6ff" fill-opacity="1"><g transform="translate(0.658944, 236.413687)"><g><path d="M 198.3125 -188.859375 L 198.3125 -151.09375 L 47.21875 -151.09375 L 47.21875 -37.765625 L 160.53125 -37.765625 L 160.53125 -75.546875 L 84.984375 -75.546875 L 84.984375 -113.3125 L 198.3125 -113.3125 L 198.3125 -37.765625 C 198.3125 -31.003906 196.617188 -24.75 193.234375 -19 C 189.847656 -13.257812 185.320312 -8.65625 179.65625 -5.1875 C 173.988281 -1.726562 167.613281 0 160.53125 0 L 47.21875 0 C 40.289062 0 33.953125 -1.691406 28.203125 -5.078125 C 22.460938 -8.460938 17.898438 -13.023438 14.515625 -18.765625 C 11.128906 -24.515625 9.4375 -30.847656 9.4375 -37.765625 L 9.4375 -151.09375 C 9.4375 -158.019531 11.128906 -164.351562 14.515625 -170.09375 C 17.898438 -175.84375 22.460938 -180.40625 28.203125 -183.78125 C 33.953125 -187.164062 40.289062 -188.859375 47.21875 -188.859375 Z M 198.3125 -188.859375 "/></g></g></g><g fill="#38b6ff" fill-opacity="1"><g transform="translate(208.410007, 236.413687)"><g><path d="M 47.21875 0 L 9.4375 0 L 9.4375 -37.765625 L 47.21875 -37.765625 Z M 47.21875 0 "/></g></g></g><g fill="#38b6ff" fill-opacity="1"><g transform="translate(265.069363, 236.413687)"><g><path d="M 103.875 0 C 95.375 0 87.503906 -2.988281 80.265625 -8.96875 L 16.53125 -63.734375 C 11.800781 -67.984375 9.4375 -73.019531 9.4375 -78.84375 L 9.4375 -188.859375 L 47.21875 -188.859375 L 47.21875 -87.34375 L 103.875 -38.484375 L 160.53125 -87.34375 L 160.53125 -188.859375 L 198.3125 -188.859375 L 198.0625 -78.84375 C 198.0625 -72.863281 195.78125 -67.828125 191.21875 -63.734375 L 127.484375 -8.96875 C 120.554688 -2.988281 112.6875 0 103.875 0 Z M 103.875 0 "/></g></g></g><g fill="#38b6ff" fill-opacity="1"><g transform="translate(472.820427, 236.413687)"><g><path d="M 47.21875 0 L 9.4375 0 L 9.4375 -37.765625 L 47.21875 -37.765625 Z M 47.21875 0 "/></g></g></g><g fill="#38b6ff" fill-opacity="1"><g transform="translate(0.658944, 488.226575)"><g><path d="M 198.3125 -188.859375 L 198.3125 -151.09375 L 122.765625 -151.09375 L 122.765625 0 L 84.984375 0 L 84.984375 -151.09375 L 9.4375 -151.09375 L 9.4375 -188.859375 Z M 198.3125 -188.859375 "/></g></g></g><g fill="#38b6ff" fill-opacity="1"><g transform="translate(208.410007, 488.226575)"><g><path d="M 198.3125 -188.859375 L 198.3125 -151.09375 L 47.21875 -151.09375 L 47.21875 -113.3125 L 198.3125 -113.3125 L 198.3125 -75.546875 L 47.21875 -75.546875 L 47.21875 -37.765625 L 198.3125 -37.765625 L 198.3125 0 L 47.21875 0 C 40.289062 0 33.953125 -1.691406 28.203125 -5.078125 C 22.460938 -8.460938 17.898438 -13.023438 14.515625 -18.765625 C 11.128906 -24.515625 9.4375 -30.847656 9.4375 -37.765625 L 9.4375 -151.09375 C 9.4375 -158.019531 11.128906 -164.351562 14.515625 -170.09375 C 17.898438 -175.84375 22.460938 -180.40625 28.203125 -183.78125 C 33.953125 -187.164062 40.289062 -188.859375 47.21875 -188.859375 Z M 198.3125 -188.859375 "/></g></g></g><g fill="#38b6ff" fill-opacity="1"><g transform="translate(416.16107, 488.226575)"><g><path d="M 198.3125 0 L 47.21875 0 C 40.289062 0 33.953125 -1.691406 28.203125 -5.078125 C 22.460938 -8.460938 17.898438 -13.023438 14.515625 -18.765625 C 11.128906 -24.515625 9.4375 -30.847656 9.4375 -37.765625 L 9.4375 -151.09375 C 9.4375 -158.019531 11.128906 -164.351562 14.515625 -170.09375 C 17.898438 -175.84375 22.460938 -180.40625 28.203125 -183.78125 C 33.953125 -187.164062 40.289062 -188.859375 47.21875 -188.859375 L 198.3125 -188.859375 L 198.3125 -151.09375 L 47.21875 -151.09375 L 47.21875 -37.765625 L 198.3125 -37.765625 Z M 198.3125 0 "/></g></g></g><g fill="#38b6ff" fill-opacity="1"><g transform="translate(623.912134, 488.226575)"><g><path d="M 160.53125 -113.3125 L 160.53125 -188.859375 L 198.3125 -188.859375 L 198.3125 0 L 160.53125 0 L 160.53125 -75.546875 L 47.21875 -75.546875 L 47.21875 0 L 9.4375 0 L 9.4375 -188.859375 L 47.21875 -188.859375 L 47.21875 -113.3125 Z M 160.53125 -113.3125 "/></g></g></g><g fill="#38b6ff" fill-opacity="1"><g transform="translate(831.663197, 488.226575)"><g><path d="M 198.3125 -188.859375 L 198.3125 -151.09375 L 47.21875 -151.09375 L 47.21875 -113.3125 L 160.53125 -113.3125 C 167.457031 -113.3125 173.789062 -111.617188 179.53125 -108.234375 C 185.28125 -104.859375 189.847656 -100.296875 193.234375 -94.546875 C 196.617188 -88.804688 198.3125 -82.472656 198.3125 -75.546875 L 198.3125 -37.765625 C 198.3125 -30.847656 196.617188 -24.515625 193.234375 -18.765625 C 189.847656 -13.023438 185.28125 -8.460938 179.53125 -5.078125 C 173.789062 -1.691406 167.457031 0 160.53125 0 L 9.4375 0 L 9.4375 -37.765625 L 160.53125 -37.765625 L 160.53125 -75.546875 L 47.21875 -75.546875 C 40.289062 -75.546875 33.953125 -77.238281 28.203125 -80.625 C 22.460938 -84.007812 17.898438 -88.570312 14.515625 -94.3125 C 11.128906 -100.0625 9.4375 -106.394531 9.4375 -113.3125 L 9.4375 -151.09375 C 9.4375 -158.019531 11.128906 -164.351562 14.515625 -170.09375 C 17.898438 -175.84375 22.460938 -180.40625 28.203125 -183.78125 C 33.953125 -187.164062 40.289062 -188.859375 47.21875 -188.859375 Z M 198.3125 -188.859375 "/></g></g></g></g></g><g clip-path="url(#ce8f27fb0b)"><path fill="#000000" d="M 170.457031 543.554688 C 175.574219 542.914062 180.730469 542.628906 185.890625 542.703125 C 189.796875 542.761719 192.933594 545.945312 192.933594 549.851562 L 192.933594 588.636719 C 192.976562 588.957031 193 589.28125 193 589.609375 C 193 589.941406 192.976562 590.265625 192.933594 590.585938 L 192.933594 631.609375 L 203.121094 631.609375 L 228.242188 586.972656 L 228.769531 586.167969 C 230.105469 584.394531 232.210938 583.328125 234.46875 583.328125 L 264.058594 583.328125 C 267.003906 574.996094 274.945312 569.027344 284.285156 569.027344 C 296.125 569.027344 305.726562 578.628906 305.726562 590.472656 C 305.726562 602.316406 296.125 611.917969 284.285156 611.917969 C 274.949219 611.917969 267.003906 605.953125 264.0625 597.625 L 238.652344 597.625 L 219.519531 631.609375 L 235.886719 631.609375 C 235.894531 631.609375 235.90625 631.609375 235.917969 631.609375 L 309.925781 631.609375 L 335.429688 606.097656 C 334.09375 603.296875 333.34375 600.164062 333.34375 596.855469 C 333.34375 585.011719 342.945312 575.410156 354.785156 575.410156 C 366.628906 575.410156 376.230469 585.011719 376.230469 596.855469 C 376.230469 608.699219 366.628906 618.300781 354.785156 618.300781 C 351.476562 618.300781 348.339844 617.550781 345.539062 616.210938 L 317.949219 643.8125 C 316.605469 645.152344 314.789062 645.90625 312.894531 645.90625 L 243.03125 645.90625 L 243.03125 667.351562 L 342.742188 667.351562 C 345.683594 659.023438 353.628906 653.058594 362.964844 653.058594 C 374.804688 653.058594 384.40625 662.660156 384.40625 674.503906 C 384.40625 686.347656 374.804688 695.949219 362.964844 695.949219 C 353.625 695.949219 345.683594 689.980469 342.738281 681.648438 L 243.03125 681.648438 L 243.03125 703.09375 L 312.894531 703.09375 L 313.597656 703.128906 C 315.234375 703.292969 316.773438 704.015625 317.949219 705.191406 L 345.539062 732.792969 C 348.339844 731.449219 351.476562 730.699219 354.785156 730.699219 C 366.628906 730.699219 376.230469 740.300781 376.230469 752.148438 C 376.230469 763.992188 366.628906 773.59375 354.785156 773.59375 C 342.945312 773.59375 333.34375 763.992188 333.34375 752.148438 C 333.34375 748.835938 334.09375 745.703125 335.429688 742.90625 L 309.925781 717.390625 L 219.484375 717.390625 L 238.664062 751.691406 L 264.0625 751.691406 C 267.007812 743.363281 274.949219 737.398438 284.285156 737.398438 C 296.125 737.398438 305.726562 747 305.726562 758.84375 C 305.726562 770.6875 296.125 780.289062 284.285156 780.289062 C 274.945312 780.289062 267 774.320312 264.058594 765.988281 L 234.46875 765.988281 C 231.882812 765.988281 229.5 764.585938 228.238281 762.328125 L 203.101562 717.390625 L 192.933594 717.390625 L 192.933594 758.417969 C 192.976562 758.734375 193 759.058594 193 759.390625 C 193 759.71875 192.976562 760.046875 192.933594 760.363281 L 192.933594 848.890625 L 238.25 848.890625 L 238.25 846.664062 C 238.269531 829.527344 241.636719 812.554688 248.152344 796.703125 C 249.65625 793.050781 253.828125 791.3125 257.480469 792.8125 C 261.128906 794.316406 262.875 798.488281 261.375 802.140625 C 255.5625 816.269531 252.5625 831.40625 252.542969 846.6875 L 252.542969 849.6875 C 262.714844 852.394531 270.210938 861.667969 270.210938 872.6875 C 270.210938 883.75 262.660156 893.050781 252.433594 895.71875 C 252.144531 899.621094 251.238281 903.460938 249.734375 907.085938 C 247.886719 911.546875 245.175781 915.601562 241.761719 919.015625 C 238.347656 922.433594 234.289062 925.148438 229.828125 926.996094 C 226.601562 928.332031 223.210938 929.199219 219.753906 929.578125 C 218.378906 936.171875 215.105469 942.273438 210.261719 947.09375 C 203.761719 953.5625 194.964844 957.195312 185.796875 957.195312 C 176.628906 957.195312 167.832031 953.5625 161.332031 947.09375 C 156.488281 942.273438 153.214844 936.171875 151.839844 929.578125 C 143.554688 928.671875 135.777344 924.96875 129.828125 919.015625 C 123.570312 912.761719 119.800781 904.480469 119.15625 895.71875 C 108.933594 893.050781 101.386719 883.75 101.386719 872.6875 C 101.386719 861.675781 108.867188 852.410156 119.023438 849.695312 C 118.511719 817.484375 106.472656 786.515625 85.085938 762.417969 C 85.066406 762.390625 85.039062 762.367188 85.019531 762.339844 C 69.265625 744.042969 58.789062 721.796875 54.722656 697.996094 C 50.65625 674.195312 53.152344 649.734375 61.933594 627.242188 C 70.71875 604.75 85.457031 585.074219 104.578125 570.328125 C 123.695312 555.582031 146.472656 546.324219 170.457031 543.546875 Z M 166.777344 929.796875 C 167.796875 932.460938 169.359375 934.914062 171.417969 936.964844 C 175.238281 940.765625 180.410156 942.898438 185.796875 942.898438 C 191.1875 942.898438 196.355469 940.765625 200.175781 936.964844 C 202.238281 934.914062 203.796875 932.460938 204.816406 929.796875 Z M 133.625 896.488281 C 134.355469 901.164062 136.546875 905.519531 139.933594 908.910156 C 144.152344 913.125 149.871094 915.5 155.835938 915.5 L 158.128906 915.5 C 158.171875 915.496094 158.214844 915.496094 158.261719 915.496094 L 213.335938 915.496094 C 213.378906 915.496094 213.421875 915.496094 213.464844 915.5 L 215.753906 915.5 C 218.707031 915.5 221.632812 914.917969 224.359375 913.789062 C 227.089844 912.660156 229.566406 910.996094 231.65625 908.910156 C 233.742188 906.820312 235.398438 904.339844 236.527344 901.613281 C 237.210938 899.964844 237.683594 898.242188 237.957031 896.488281 Z M 125.183594 863.1875 C 119.9375 863.1875 115.683594 867.441406 115.683594 872.6875 C 115.683594 877.9375 119.933594 882.1875 125.183594 882.191406 L 246.410156 882.191406 C 251.65625 882.191406 255.914062 877.9375 255.914062 872.6875 C 255.914062 867.441406 251.65625 863.1875 246.410156 863.1875 L 245.535156 863.1875 C 245.488281 863.1875 245.441406 863.1875 245.394531 863.1875 L 126.171875 863.1875 C 126.128906 863.1875 126.082031 863.1875 126.035156 863.1875 Z M 178.636719 557.148438 C 176.476562 557.273438 174.316406 557.46875 172.164062 557.742188 L 172.097656 557.753906 C 150.695312 560.234375 130.371094 568.492188 113.308594 581.652344 C 96.246094 594.808594 83.082031 612.371094 75.246094 632.445312 C 67.40625 652.515625 65.1875 674.347656 68.816406 695.589844 C 72.445312 716.828125 81.792969 736.675781 95.851562 753.007812 C 119.335938 779.507812 132.601562 813.503906 133.300781 848.890625 L 178.636719 848.890625 L 178.636719 766.539062 L 169.839844 766.539062 C 165.890625 766.539062 162.691406 763.335938 162.691406 759.390625 L 162.691406 739.542969 C 160.472656 738.753906 158.296875 737.851562 156.171875 736.839844 L 142.160156 750.859375 C 139.371094 753.652344 134.839844 753.652344 132.046875 750.859375 L 109.464844 728.277344 C 108.125 726.9375 107.371094 725.117188 107.371094 723.222656 C 107.371094 721.324219 108.125 719.5 109.464844 718.160156 L 123.476562 704.140625 C 122.464844 702.015625 121.5625 699.84375 120.773438 697.628906 L 100.9375 697.628906 C 96.988281 697.628906 93.789062 694.425781 93.789062 690.480469 L 93.789062 658.519531 C 93.789062 654.574219 96.988281 651.371094 100.9375 651.371094 L 120.773438 651.371094 C 121.5625 649.152344 122.464844 646.976562 123.476562 644.851562 L 109.464844 630.839844 C 108.125 629.5 107.371094 627.675781 107.371094 625.78125 C 107.371094 623.886719 108.125 622.066406 109.464844 620.726562 L 132.046875 598.140625 L 132.589844 597.644531 C 135.398438 595.355469 139.542969 595.523438 142.160156 598.140625 L 156.171875 612.152344 C 158.296875 611.140625 160.472656 610.238281 162.691406 609.449219 L 162.691406 589.609375 C 162.691406 585.664062 165.890625 582.464844 169.839844 582.460938 L 178.636719 582.460938 Z M 284.285156 751.695312 C 280.398438 751.695312 277.238281 754.792969 277.136719 758.652344 C 277.140625 758.714844 277.140625 758.777344 277.140625 758.839844 C 277.140625 758.902344 277.140625 758.964844 277.136719 759.027344 C 277.234375 762.890625 280.398438 765.992188 284.285156 765.992188 C 288.230469 765.992188 291.429688 762.792969 291.429688 758.84375 C 291.429688 754.894531 288.230469 751.695312 284.285156 751.695312 Z M 354.785156 745 C 353.101562 745 351.550781 745.582031 350.328125 746.558594 C 350.164062 746.765625 349.984375 746.96875 349.789062 747.160156 C 349.601562 747.351562 349.402344 747.527344 349.195312 747.691406 C 348.21875 748.914062 347.636719 750.460938 347.636719 752.148438 C 347.636719 756.09375 350.839844 759.292969 354.785156 759.292969 C 358.734375 759.292969 361.933594 756.09375 361.933594 752.148438 C 361.933594 748.199219 358.734375 745 354.785156 745 Z M 176.984375 614.699219 C 176.984375 617.941406 174.808594 620.777344 171.679688 621.613281 C 167.035156 622.851562 162.570312 624.695312 158.410156 627.105469 C 155.609375 628.730469 152.066406 628.265625 149.777344 625.976562 L 137.101562 613.304688 L 124.625 625.78125 L 137.296875 638.457031 C 139.585938 640.746094 140.050781 644.289062 138.425781 647.09375 C 136.015625 651.253906 134.171875 655.71875 132.933594 660.363281 C 132.097656 663.492188 129.261719 665.667969 126.023438 665.667969 L 108.082031 665.667969 L 108.082031 683.332031 L 126.023438 683.332031 L 127.214844 683.429688 C 129.941406 683.890625 132.203125 685.898438 132.933594 688.636719 C 134.171875 693.285156 136.015625 697.746094 138.425781 701.90625 C 140.050781 704.710938 139.585938 708.253906 137.296875 710.542969 L 124.625 723.214844 L 137.101562 735.691406 L 149.777344 723.027344 L 150.691406 722.25 C 152.941406 720.652344 155.960938 720.476562 158.410156 721.894531 C 162.570312 724.304688 167.035156 726.152344 171.679688 727.390625 C 174.808594 728.222656 176.984375 731.0625 176.984375 734.300781 L 176.984375 752.242188 L 178.636719 752.242188 L 178.636719 711.003906 C 171.457031 709.582031 164.792969 706.066406 159.542969 700.8125 C 152.566406 693.835938 148.648438 684.371094 148.648438 674.5 C 148.648438 664.632812 152.566406 655.167969 159.542969 648.191406 C 164.792969 642.9375 171.457031 639.417969 178.636719 638 L 178.636719 596.757812 L 176.984375 596.757812 Z M 193 703.09375 L 207.082031 703.09375 C 207.21875 703.089844 207.355469 703.089844 207.492188 703.09375 L 228.738281 703.09375 L 228.738281 674.515625 C 228.738281 674.511719 228.738281 674.503906 228.738281 674.5 C 228.738281 674.496094 228.738281 674.492188 228.738281 674.484375 L 228.738281 645.90625 L 193 645.90625 Z M 178.636719 652.753906 C 175.28125 653.867188 172.195312 655.75 169.652344 658.296875 C 165.355469 662.59375 162.941406 668.425781 162.941406 674.5 C 162.941406 680.578125 165.355469 686.40625 169.652344 690.703125 C 172.195312 693.25 175.28125 695.136719 178.636719 696.25 Z M 362.964844 667.355469 C 359.015625 667.355469 355.816406 670.554688 355.816406 674.503906 C 355.816406 678.449219 359.015625 681.652344 362.964844 681.652344 C 366.910156 681.652344 370.109375 678.449219 370.109375 674.503906 C 370.109375 670.554688 366.910156 667.355469 362.964844 667.355469 Z M 354.785156 589.707031 C 350.839844 589.707031 347.636719 592.90625 347.636719 596.855469 C 347.636719 598.539062 348.21875 600.085938 349.195312 601.308594 C 349.402344 601.472656 349.601562 601.652344 349.789062 601.84375 C 349.984375 602.035156 350.164062 602.234375 350.328125 602.441406 C 351.550781 603.417969 353.101562 604.003906 354.785156 604.003906 C 358.734375 604.003906 361.933594 600.804688 361.933594 596.855469 C 361.933594 592.90625 358.734375 589.707031 354.785156 589.707031 Z M 284.285156 583.324219 C 280.398438 583.324219 277.238281 586.425781 277.136719 590.289062 C 277.140625 590.351562 277.140625 590.414062 277.140625 590.476562 C 277.140625 590.539062 277.140625 590.601562 277.136719 590.664062 C 277.238281 594.523438 280.398438 597.621094 284.285156 597.621094 C 288.230469 597.621094 291.429688 594.421875 291.429688 590.472656 C 291.429688 586.527344 288.230469 583.324219 284.285156 583.324219 Z M 284.285156 583.324219 " fill-opacity="1" fill-rule="nonzero"/></g></svg>